HIERARCHY
ROOT Hips
{
	OFFSET 0.00000 0.00000 0.00000
	CHANNELS 6 Xposition Yposition Zposition Zrotation Yrotation Xrotation 
	JOINT LHipJoint
	{
		OFFSET 0 0 0
		CHANNELS 3 Zrotation Yrotation Xrotation
		JOINT LeftUpLeg
		{
			OFFSET 1.09156 -1.61406 0.76500
			CHANNELS 3 Zrotation Yrotation Xrotation
			JOINT LeftLeg
			{
				OFFSET 2.33750 -6.42225 0.00000
				CHANNELS 3 Zrotation Yrotation Xrotation
				JOINT LeftFoot
				{
					OFFSET 2.49247 -6.84800 0.00000
					CHANNELS 3 Zrotation Yrotation Xrotation
					JOINT LeftToeBase
					{
						OFFSET 0.15312 -0.42069 1.45461
						CHANNELS 3 Zrotation Yrotation Xrotation
						End Site
						{
							OFFSET 0.00000 -0.00000 0.77046
						}
					}
				}
			}
		}
	}
	JOINT RHipJoint
	{
		OFFSET 0 0 0
		CHANNELS 3 Zrotation Yrotation Xrotation
		JOINT RightUpLeg
		{
			OFFSET -0.99883 -1.61406 0.76500
			CHANNELS 3 Zrotation Yrotation Xrotation
			JOINT RightLeg
			{
				OFFSET -2.36877 -6.50815 0.00000
				CHANNELS 3 Zrotation Yrotation Xrotation
				JOINT RightFoot
				{
					OFFSET -2.53452 -6.96353 0.00000
					CHANNELS 3 Zrotation Yrotation Xrotation
					JOINT RightToeBase
					{
						OFFSET -0.13156 -0.36145 1.63237
						CHANNELS 3 Zrotation Yrotation Xrotation
						End Site
						{
							OFFSET -0.00000 -0.00000 0.84979
						}
					}
				}
			}
		}
	}
	JOINT LowerBack
	{
		OFFSET 0 0 0
		CHANNELS 3 Zrotation Yrotation Xrotation
		JOINT Spine
		{
			OFFSET -0.02431 1.98242 -0.13616
			CHANNELS 3 Zrotation Yrotation Xrotation
			JOINT Spine1
			{
				OFFSET 0.03629 1.98974 -0.02954
				CHANNELS 3 Zrotation Yrotation Xrotation
				JOINT Neck
				{
					OFFSET 0 0 0
					CHANNELS 3 Zrotation Yrotation Xrotation
					JOINT Neck1
					{
						OFFSET 0.09349 1.40783 0.22333
						CHANNELS 3 Zrotation Yrotation Xrotation
						JOINT Head
						{
							OFFSET -0.04273 1.44500 -0.06495
							CHANNELS 3 Zrotation Yrotation Xrotation
							End Site
							{
								OFFSET -0.02251 1.44600 -0.04544
							}
						}
					}
				}
				JOINT LeftShoulder
				{
					OFFSET 0 0 0
					CHANNELS 3 Zrotation Yrotation Xrotation
					JOINT LeftArm
					{
						OFFSET 3.49137 0.85126 -0.29740
						CHANNELS 3 Zrotation Yrotation Xrotation
						JOINT LeftForeArm
						{
							OFFSET 5.06035 -0.00000 0.00000
							CHANNELS 3 Zrotation Yrotation Xrotation
							JOINT LeftHand
							{
								OFFSET 3.14780 -0.00000 0.00000
								CHANNELS 3 Zrotation Yrotation Xrotation
								JOINT LeftFingerBase
								{
									OFFSET 0 0 0
									CHANNELS 3 Zrotation Yrotation Xrotation
									JOINT LeftHandIndex1
									{
										OFFSET 0.60675 -0.00000 0.00000
										CHANNELS 3 Zrotation Yrotation Xrotation
										End Site
										{
											OFFSET 0.48918 -0.00000 0.00000
										}
									}
								}
								JOINT LThumb
								{
									OFFSET 0 0 0
									CHANNELS 3 Zrotation Yrotation Xrotation
									End Site
									{
										OFFSET 0.49664 -0.00000 0.49664
									}
								}
							}
						}
					}
				}
				JOINT RightShoulder
				{
					OFFSET 0 0 0
					CHANNELS 3 Zrotation Yrotation Xrotation
					JOINT RightArm
					{
						OFFSET -3.28101 0.69707 0.00747
						CHANNELS 3 Zrotation Yrotation Xrotation
						JOINT RightForeArm
						{
							OFFSET -5.12273 -0.00000 -0.00000
							CHANNELS 3 Zrotation Yrotation Xrotation
							JOINT RightHand
							{
								OFFSET -3.42200 -0.00000 0.00000
								CHANNELS 3 Zrotation Yrotation Xrotation
								JOINT RightFingerBase
								{
									OFFSET 0 0 0
									CHANNELS 3 Zrotation Yrotation Xrotation
									JOINT RightHandIndex1
									{
										OFFSET -0.70460 -0.00000 0.00000
										CHANNELS 3 Zrotation Yrotation Xrotation
										End Site
										{
											OFFSET -0.56807 -0.00000 0.00000
										}
									}
								}
								JOINT RThumb
								{
									OFFSET 0 0 0
									CHANNELS 3 Zrotation Yrotation Xrotation
									End Site
									{
										OFFSET -0.57674 -0.00000 0.57674
									}
								}
							}
						}
					}
				}
			}
		}
	}
}
MOTION
Frames: 6
Frame Time: .0083333
-33.643 15.934 -1.2694 0 0 0 0 0 0 -21 0 0 0 0 0 0 0 0 0 0 0 0 0 0 21 0 0 0 0 0 0 0 0 0 0 0 0 0 0 0 0 0 0 0 0 0 0 -16 0 0 21 0 0 11 0 0 0 -8 0 0 0 0 0 0 0 0 0 0 0 0 0 0 0 0 0 0 0 0 8 0 0 0 0 0 0 0 0 0 0 0 0 0 0 0 0 0
-33.6430 15.9340 -1.2694 153.4850 88.0927 160.5360 0.0000 0.0000 0.0000 -19.2390 -5.1590 -10.2471 2.0641 8.9984 25.7902 1.4192 6.4244 -25.6403 0.2376 3.1373 8.6612 0.0000 0.0000 0.0000 13.1882 6.1552 -7.4599 -1.3489 -7.3525 20.7641 0.1599 -14.3409 -18.4792 -0.7641 5.5821 -15.5765 -5.1444 -0.9742 -6.8693 0.5500 -0.9078 -2.8791 3.3895 -0.3897 0.9625 2.3489 1.1110 2.8250 1.9479 1.8767 -8.3766 0.1543 0.8238 -3.1728 -0.0000 0.0000 0.0000 -91.7255 -4.8677 14.7657 6.0084 -10.2762 -0.5408 -0.0000 -0.0000 14.7033 16.7169 45.0306 11.9960 -7.1250 0.0000 -0.0000 -37.5823 73.3384 -26.1709 -0.0000 0.0000 0.0000 91.6127 -0.5573 5.1988 -8.7465 14.7555 -1.1347 0.0000 0.0000 17.5140 -24.1275 32.2629 -13.4464 7.1250 -0.0000 -0.0000 4.3413 4.6028 4.6887
-33.6350 15.9257 -1.2700 145.7580 88.2057 152.6500 0.0000 0.0000 0.0000 -19.4768 -5.0739 -9.9909 2.0562 8.9821 25.7394 1.4135 6.5922 -25.7024 0.2422 3.1672 8.7447 0.0000 0.0000 0.0000 12.9481 5.8870 -7.5119 -1.3690 -7.4051 20.9213 0.1234 -13.9883 -18.3958 -0.8042 5.7232 -15.9834 -5.1774 -1.0006 -6.9049 0.4673 -0.9373 -2.8002 3.3191 -0.4097 1.0658 2.0365 1.0278 2.7096 2.0164 1.7430 -8.2638 0.2362 0.7659 -3.1158 0.0000 0.0000 0.0000 -91.6948 -4.8560 14.8386 6.0536 -10.3515 -0.5488 -0.0000 -0.0000 14.2850 16.7977 44.8846 12.0258 -7.1250 0.0000 -0.0000 -37.1397 73.2626 -25.7836 0.0000 0.0000 0.0000 91.6548 -0.4851 5.2822 -8.7074 14.6930 -1.1248 0.0000 0.0000 17.8386 -24.0811 32.2659 -13.4194 7.1250 -0.0000 -0.0000 4.3678 4.5951 4.7169
-33.6347 15.9277 -1.2687 142.8640 88.1322 149.6960 0.0000 0.0000 0.0000 -19.6032 -4.9950 -9.9200 2.0484 8.9663 25.6898 1.4214 6.4809 -25.6921 0.2487 3.2091 8.8614 0.0000 0.0000 0.0000 12.8264 5.5026 -7.5383 -1.3670 -7.3998 20.9054 0.0914 -13.6815 -18.3350 -0.8047 5.7252 -15.9891 -5.4614 -1.1319 -6.8103 0.6440 -1.1035 -2.8245 3.6504 -0.4888 1.0114 1.2812 1.0022 2.4482 2.3224 1.6657 -7.8425 0.4697 0.7443 -2.9328 -0.0000 -0.0000 0.0000 -92.0691 -4.9009 14.0657 6.0321 -10.3157 -0.5450 -0.0000 -0.0000 14.7190 16.6538 44.8702 11.9169 -7.1250 0.0000 -0.0000 -37.2599 73.1998 -25.8252 -0.0000 -0.0000 0.0000 91.2666 -0.5222 5.6140 -8.6989 14.6793 -1.1226 0.0000 0.0000 17.9574 -23.7992 32.3689 -13.2852 7.1250 -0.0000 -0.0000 4.5426 4.6358 4.9098
-33.6412 15.9300 -1.2626 146.8980 88.0450 153.8500 0.0000 0.0000 0.0000 -19.4624 -4.8871 -10.1536 2.0483 8.9660 25.6892 1.4430 6.1510 -25.6499 0.2533 3.2383 8.9430 0.0000 0.0000 0.0000 12.9312 5.8009 -7.5896 -1.3664 -7.3982 20.9005 0.1283 -14.0453 -18.4211 -0.7637 5.5806 -15.5723 -5.4799 -1.1677 -6.8104 0.6823 -1.1501 -2.8958 3.6976 -0.5075 0.9435 1.0831 0.8042 2.3711 2.3904 1.3894 -7.7561 0.5351 0.6114 -2.8896 0.0000 0.0000 0.0000 -92.0957 -4.9942 13.7926 6.0186 -10.2932 -0.5426 -0.0000 -0.0000 15.0666 16.5269 45.1220 11.8742 -7.1250 0.0000 -0.0000 -38.0097 73.3347 -26.4875 0.0000 0.0000 0.0000 91.2121 -0.5408 5.7464 -8.7196 14.7125 -1.1279 0.0000 0.0000 17.7612 -23.4436 32.4031 -13.0820 7.1250 -0.0000 -0.0000 4.7472 4.5896 5.1289
-33.6458 15.9434 -1.2573 150.4080 87.9385 157.6120 0.0000 0.0000 0.0000 -19.3322 -4.8464 -10.4882 2.0419 8.9527 25.6476 1.4586 5.8235 -25.5700 0.2431 3.1730 8.7607 0.0000 0.0000 0.0000 13.0356 5.9393 -7.7622 -1.3670 -7.3999 20.9058 0.0651 -13.8977 -18.9812 -0.6136 5.0136 -13.9473 -5.3900 -1.1855 -6.9685 0.6128 -1.1668 -2.9823 3.5720 -0.5129 0.9408 1.1830 0.5108 2.4981 2.2369 0.9976 -7.9384 0.4813 0.4162 -2.9703 0.0000 0.0000 0.0000 -91.9200 -4.9979 14.3795 6.0716 -10.3816 -0.5521 -0.0000 -0.0000 14.6390 16.6172 45.2497 11.9666 -7.1250 0.0000 -0.0000 -38.2305 73.4585 -26.7487 0.0000 0.0000 0.0000 91.3703 -0.4979 5.7275 -8.7257 14.7222 -1.1294 0.0000 0.0000 17.5975 -23.5355 32.2681 -13.0904 7.1250 -0.0000 -0.0000 4.6740 4.4722 5.0404
